<svg width="21" height="20" viewBox="0 0 21 20" fill="none" xmlns="http://www.w3.org/2000/svg">
<g id="icon/decrease">
<path id="Vector" d="M10.5 1.66663C5.89579 1.66663 2.16663 5.39579 2.16663 9.99996C2.16663 14.6041 5.89579 18.3333 10.5 18.3333C15.1041 18.3333 18.8333 14.6041 18.8333 9.99996C18.8333 5.39579 15.1041 1.66663 10.5 1.66663ZM14.7708 11.075L11.0916 14.7541C11.05 14.7958 11.0083 14.8291 10.9625 14.8583C10.9416 14.875 10.9208 14.8833 10.9 14.8916C10.875 14.9083 10.8458 14.925 10.8166 14.9375C10.7916 14.9458 10.7625 14.9541 10.7333 14.9625C10.7125 14.9708 10.6875 14.9791 10.6625 14.9833C10.6083 14.9958 10.5541 15 10.5 15C10.4458 15 10.3916 14.9958 10.3375 14.9833C10.3125 14.9833 10.2875 14.9708 10.2666 14.9625C10.2375 14.9541 10.2083 14.9458 10.1833 14.9375C10.1541 14.925 10.125 14.9083 10.1 14.8916C10.0791 14.8833 10.0583 14.875 10.0375 14.8583C9.99163 14.8291 9.94996 14.7958 9.90829 14.7541L6.22913 11.075C5.90413 10.75 5.90413 10.2208 6.22913 9.89579C6.55413 9.57079 7.07913 9.57079 7.40829 9.89579L9.66663 12.1541V5.54996C9.66663 5.09163 10.0416 4.71663 10.5 4.71663C10.9583 4.71663 11.3333 5.09163 11.3333 5.54996V12.1541L13.5916 9.89579C13.9208 9.57079 14.4458 9.57079 14.7708 9.89579C15.0958 10.2208 15.0958 10.75 14.7708 11.075Z" fill="white"/>
</g>
</svg>
