<svg width="132" height="32" viewBox="0 0 132 32" fill="none" xmlns="http://www.w3.org/2000/svg">
<g id="Frame 480797">
<g id="Group 480796">
<g id="Group">
<path id="Vector" d="M113.888 9.29285C108.717 9.29285 104.641 13.9749 104.641 18.657C104.641 23.8283 108.834 28.0211 114.005 28.0211C117.006 28.0211 119.229 27.0847 120.809 25.3769C121.799 24.3071 121.37 22.5712 119.995 22.0866C119.244 21.8221 118.403 22.0152 117.857 22.5946C116.817 23.7007 115.432 23.9255 114.122 23.9255C111.987 23.9255 110.035 22.5021 109.255 20.648H120.32C121.602 20.648 122.659 19.6203 122.667 18.3386C122.667 18.3281 122.667 18.3175 122.667 18.307C122.667 13.3908 118.57 9.29402 113.888 9.29402V9.29285ZM109.255 16.6671C110.035 14.813 111.87 13.5067 114.005 13.5067C116.14 13.5067 117.751 15.1454 118.219 16.6671H109.255Z" fill="white"/>
<path id="Vector_2" d="M51.9679 9.29285C46.7965 9.29285 42.6037 13.4856 42.6037 18.657C42.6037 23.8283 46.7965 28.0211 51.9679 28.0211C53.8419 28.0211 55.5859 27.4686 57.0491 26.5205C57.4693 27.1432 58.1821 27.5529 58.991 27.5529C60.2844 27.5529 61.332 26.5053 61.332 25.2119V18.657C61.332 13.4856 57.1392 9.29285 51.9679 9.29285ZM51.9679 23.3391C49.3857 23.3391 47.2858 21.2391 47.2858 18.657C47.2858 16.0748 49.3857 13.9749 51.9679 13.9749C54.55 13.9749 56.6499 16.0748 56.6499 18.657C56.6499 21.2391 54.55 23.3391 51.9679 23.3391Z" fill="white"/>
<path id="Vector_3" d="M67.4184 9.76111C66.125 9.76111 65.0774 10.8087 65.0774 12.1021V25.2119C65.0774 26.5054 66.125 27.553 67.4184 27.553C68.7118 27.553 69.7594 26.5054 69.7594 25.2119V12.1021C69.7594 10.8087 68.7118 9.76111 67.4184 9.76111Z" fill="white"/>
<path id="Vector_4" d="M67.4187 1.33337C65.8677 1.33337 64.6094 2.59168 64.6094 4.14262C64.6094 5.69355 65.8677 6.95186 67.4187 6.95186C68.9696 6.95186 70.2279 5.69355 70.2279 4.14262C70.2279 2.59168 68.9696 1.33337 67.4187 1.33337Z" fill="white"/>
<path id="Vector_5" d="M98.5541 3.20618C97.2607 3.20618 96.2131 4.25379 96.2131 5.54721V25.2119C96.2131 26.5053 97.2607 27.5529 98.5541 27.5529C99.8476 27.5529 100.895 26.5053 100.895 25.2119V5.54721C100.895 4.25379 99.8476 3.20618 98.5541 3.20618Z" fill="white"/>
<path id="Vector_6" d="M89.8923 3.20618C88.5989 3.20618 87.5513 4.25379 87.5513 5.54721V10.5488C86.1736 9.75171 84.5758 9.29287 82.8692 9.29287C77.6979 9.29287 73.5051 13.4857 73.5051 18.657C73.5051 23.8283 77.6979 28.0211 82.8692 28.0211C88.0406 28.0211 92.2334 23.8283 92.2334 18.657V5.54721C92.2334 4.25379 91.1858 3.20618 89.8923 3.20618ZM82.8692 23.3391C80.2871 23.3391 78.1872 21.2392 78.1872 18.657C78.1872 16.0748 80.2871 13.9749 82.8692 13.9749C85.4514 13.9749 87.5513 16.0748 87.5513 18.657C87.5513 21.2392 85.4514 23.3391 82.8692 23.3391Z" fill="white"/>
</g>
<path id="Vector_7" d="M20.5437 5.54724C14.1071 5.54724 8.88889 10.7619 8.88889 17.1939C8.88889 23.6259 14.1071 28.8405 20.5437 28.8405C23.1739 28.8405 25.6004 27.9697 27.5516 26.4995C26.9792 25.6204 26.669 24.5553 26.7311 23.4257C26.8856 20.6059 29.2957 18.4428 32.1155 18.588C32.1705 18.1315 32.1986 17.6656 32.1986 17.1939C32.1986 10.7619 26.9792 5.54724 20.5437 5.54724ZM20.5437 22.3184C17.7146 22.3184 15.4157 20.0195 15.4157 17.1939C15.4157 14.3683 17.7158 12.0694 20.5437 12.0694C23.3717 12.0694 25.6718 14.3683 25.6718 17.1939C25.6718 20.0195 23.3705 22.3184 20.5437 22.3184Z" fill="white"/>
<path id="Vector_8" d="M31.8526 27.8994C34.1695 27.8994 36.0477 26.0222 36.0477 23.7066C36.0477 21.391 34.1695 19.5138 31.8526 19.5138C29.5357 19.5138 27.6574 21.391 27.6574 23.7066C27.6574 26.0222 29.5357 27.8994 31.8526 27.8994Z" fill="white"/>
</g>
</g>
</svg>
