<svg width="24" height="24" viewBox="0 0 24 24" fill="none" xmlns="http://www.w3.org/2000/svg">
<g id="icon/search">
<path id="Vector" d="M20.705 19.295L17.31 15.9C18.365 14.545 18.995 12.85 18.995 11C18.995 6.58 15.415 3 10.995 3C6.575 3 3 6.58 3 11C3 15.42 6.58 19 11 19C12.85 19 14.545 18.365 15.9 17.315L19.295 20.71C19.49 20.905 19.745 21.005 20 21.005C20.255 21.005 20.51 20.905 20.705 20.71C21.095 20.32 21.095 19.685 20.705 19.295ZM5 11C5 7.69 7.69 5 11 5C14.31 5 17 7.69 17 11C17 14.31 14.31 17 11 17C7.69 17 5 14.31 5 11Z" fill="#5A6872"/>
</g>
</svg>
